HIERARCHY
ROOT Pelvis
{
	OFFSET 0.000000 0.000000 0.000000
	CHANNELS 6 Xposition Yposition Zposition Xrotation Yrotation Zrotation
	JOINT LeftUpLeg_virtual
	{
		OFFSET 0.000000 0.000000 0.000000
		CHANNELS 3 Xrotation Yrotation Zrotation
		JOINT LeftUpLeg
		{
			OFFSET 18.735201 -5.666702 -4.541200
			CHANNELS 3 Xrotation Yrotation Zrotation
			JOINT LeftLeg
			{
				OFFSET -0.021200 -31.938179 0.493100
				CHANNELS 3 Xrotation Yrotation Zrotation
				JOINT LeftFoot
				{
					OFFSET 0.021200 -31.938179 -4.336299
					CHANNELS 3 Xrotation Yrotation Zrotation
					JOINT LeftToeBase
					{
						OFFSET 0.943001 -26.722000 15.023500
						CHANNELS 3 Xrotation Yrotation Zrotation
						End Site
						{
							OFFSET 0 0 0
						}
					}
				}
			}
		}
	}
	JOINT RightUpLeg_virtual
	{
		OFFSET 0.000000 0.000000 0.000000
		CHANNELS 3 Xrotation Yrotation Zrotation
		JOINT RightUpLeg
		{
			OFFSET -18.735201 -5.666702 -4.541200
			CHANNELS 3 Xrotation Yrotation Zrotation
			JOINT RightLeg
			{
				OFFSET 0.018946 -31.938133 0.493100
				CHANNELS 3 Xrotation Yrotation Zrotation
				JOINT RightFoot
				{
					OFFSET -0.018946 -31.938126 -4.336299
					CHANNELS 3 Xrotation Yrotation Zrotation
					JOINT RightToeBase
					{
						OFFSET -0.943001 -26.722004 15.023500
						CHANNELS 3 Xrotation Yrotation Zrotation
						End Site
						{
							OFFSET 0 0 0
						}
					}
				}
			}
		}
	}
	JOINT Hips_virtual
	{
		OFFSET 0.000000 0.000000 0.000000
		CHANNELS 3 Xrotation Yrotation Zrotation
		JOINT Hips
		{
			OFFSET -0.000000 -0.000000 -0.000000
			CHANNELS 3 Xrotation Yrotation Zrotation
			JOINT Spine
			{
				OFFSET 0.000000 10.199997 -0.299500
				CHANNELS 3 Xrotation Yrotation Zrotation
				JOINT Spine1
				{
					OFFSET 0.000000 11.900002 -1.516600
					CHANNELS 3 Xrotation Yrotation Zrotation
					JOINT Spine2
					{
						OFFSET 0.000000 13.600006 -2.842500
						CHANNELS 3 Xrotation Yrotation Zrotation
						JOINT Neck_virtual
						{
							OFFSET 0.000000 0.000000 0.000000
							CHANNELS 3 Xrotation Yrotation Zrotation
							JOINT Neck
							{
								OFFSET 0.000000 9.624100 -2.890100
								CHANNELS 3 Xrotation Yrotation Zrotation
								JOINT Head
								{
									OFFSET 0.000000 14.068802 -1.351900
									CHANNELS 3 Xrotation Yrotation Zrotation
									End Site
									{
										OFFSET 0 0 0
									}
								}
							}
						}
						JOINT LeftShoulder_virtual
						{
							OFFSET 0.000000 0.000000 0.000000
							CHANNELS 3 Xrotation Yrotation Zrotation
							JOINT LeftShoulder
							{
								OFFSET 15.263000 10.923401 -0.547700
								CHANNELS 3 Xrotation Yrotation Zrotation
								JOINT LeftArm
								{
									OFFSET 25.438599 -2.830597 -13.032500
									CHANNELS 3 Xrotation Yrotation Zrotation
									JOINT LeftForeArm
									{
										OFFSET 29.960503 0.000000 0.000000
										CHANNELS 3 Xrotation Yrotation Zrotation
										JOINT LeftHand
										{
											OFFSET 27.849251 0.000000 0.000000
											CHANNELS 3 Xrotation Yrotation Zrotation
											End Site
											{
												OFFSET 0 0 0
											}
										}
									}
								}
							}
						}
						JOINT RightShoulder_virtual
						{
							OFFSET 0.000000 0.000000 0.000000
							CHANNELS 3 Xrotation Yrotation Zrotation
							JOINT RightShoulder
							{
								OFFSET -15.263000 10.923401 -0.547700
								CHANNELS 3 Xrotation Yrotation Zrotation
								JOINT RightArm
								{
									OFFSET -25.438599 -2.830597 -13.032500
									CHANNELS 3 Xrotation Yrotation Zrotation
									JOINT RightForeArm
									{
										OFFSET -29.960503 0.000000 0.000000
										CHANNELS 3 Xrotation Yrotation Zrotation
										JOINT RightHand
										{
											OFFSET -27.849251 0.000000 0.000000
											CHANNELS 3 Xrotation Yrotation Zrotation
											End Site
											{
												OFFSET 0 0 0
											}
										}
									}
								}
							}
						}
					}
				}
			}
		}
	}
}
MOTION
Frames: 5
Frame Time: 0.03333333
-3.311226 101.059982 183.196960 0.000000 0.000000 0.000000 14.514862 -0.619618 0.109020 -22.164618 12.373878 16.756184 60.314511 8.761984 2.437989 8.584662 7.672957 4.910808 0.000000 0.000000 0.000000 -6.790603 -12.004780 7.860040 -42.214729 -8.410061 -8.219818 63.905654 1.925035 -10.001212 5.454977 5.414325 -3.038085 0.000000 0.000000 0.000000 7.292227 0.664775 1.381137 13.769130 13.431982 -3.726157 -7.168522 -1.236427 1.265672 -2.429835 -0.581755 0.264514 0.000000 0.000000 0.000000 -5.120255 -0.474510 -2.111300 -2.024342 0.327426 -0.042896 0.000000 0.000000 0.000000 3.443243 1.214049 2.444262 3.221261 -4.163978 27.446133 -79.022823 -22.617757 -0.822346 -19.956138 -36.187691 3.809931 0.000000 0.000000 0.000000 -2.089819 -4.634833 -3.516414 1.658355 -5.201799 -27.507504 -74.835958 33.162590 -4.734841 -52.401655 67.820582 25.332374 0.000000 0.000000 0.000000 
-3.576448 99.735725 187.066788 0.000000 0.000000 0.000000 13.971626 -0.167143 -0.094562 -22.793900 12.397131 16.620017 58.587382 8.552116 2.438729 7.382236 7.503712 4.642286 0.000000 0.000000 0.000000 -7.729443 -10.839644 7.924524 -43.340689 -8.018031 -8.116975 62.944565 1.771062 -10.069161 5.620301 5.310891 -3.636817 0.000000 0.000000 0.000000 6.664870 0.428745 1.402390 12.602780 14.410750 -3.787051 -7.105134 -1.530551 1.421462 -2.352210 -0.740571 0.362664 0.000000 0.000000 0.000000 -4.671821 -0.723028 -1.963086 -1.780624 0.315167 0.030741 0.000000 0.000000 0.000000 3.433154 1.021670 2.609669 3.148030 -4.056757 28.072672 -79.203427 -22.324825 -0.712945 -20.045072 -35.442907 3.740903 0.000000 0.000000 0.000000 -2.115772 -4.821778 -3.420837 1.540358 -5.592831 -27.522760 -73.247297 33.123713 -7.655142 -49.092190 67.499201 21.745422 0.000000 0.000000 0.000000 
-3.798092 98.680435 190.891052 0.000000 0.000000 0.000000 13.329311 0.213053 -0.328136 -23.584956 12.392955 16.452746 56.928121 8.193858 2.467046 6.203657 7.153734 4.301406 0.000000 0.000000 0.000000 -8.525222 -9.987812 8.031771 -44.306242 -7.739929 -7.994661 62.108556 1.531518 -10.100155 5.734924 5.089322 -4.208760 0.000000 0.000000 0.000000 6.028069 0.193643 1.420263 11.343430 15.380710 -3.830094 -7.031139 -1.850220 1.562258 -2.254882 -0.913176 0.450823 0.000000 0.000000 0.000000 -4.208745 -0.982747 -1.812704 -1.526368 0.295099 0.110078 0.000000 0.000000 0.000000 3.439795 0.820873 2.764442 3.093434 -3.981874 28.693700 -79.335229 -22.040839 -0.687906 -20.096187 -34.745493 3.626307 0.000000 0.000000 0.000000 -2.144478 -5.003798 -3.313748 1.431226 -5.931648 -27.547761 -71.700621 32.769622 -10.357378 -45.735766 66.768774 18.256689 0.000000 0.000000 0.000000 
-3.970120 97.909172 194.660873 0.000000 0.000000 0.000000 12.610717 0.570100 -0.591867 -24.501550 12.378716 16.258743 55.352772 7.687208 2.538079 5.059296 6.616030 3.919236 0.000000 0.000000 0.000000 -9.158182 -9.465405 8.172136 -45.078023 -7.581676 -7.846573 61.288018 1.245606 -10.081362 5.737568 4.778393 -4.705561 0.000000 0.000000 0.000000 5.389608 -0.054274 1.435112 10.023254 16.295501 -3.844801 -6.956879 -2.195543 1.681426 -2.144765 -1.097463 0.525604 0.000000 0.000000 0.000000 -3.731548 -1.248581 -1.668284 -1.261768 0.269785 0.190993 0.000000 0.000000 0.000000 3.451386 0.618289 2.902540 3.041743 -3.918466 29.285584 -79.455645 -21.769720 -0.745912 -20.131277 -34.104074 3.467085 0.000000 0.000000 0.000000 -2.185337 -5.179090 -3.199277 1.323700 -6.213940 -27.591338 -70.234419 32.139226 -12.804493 -42.564195 65.690642 15.089626 0.000000 0.000000 0.000000 
-4.091597 97.416092 198.364273 0.000000 0.000000 0.000000 11.841259 0.962270 -0.884439 -25.505118 12.373986 16.045105 53.879626 7.041481 2.661321 3.963298 5.897117 3.525035 0.000000 0.000000 0.000000 -9.619585 -9.261074 8.332390 -45.638542 -7.538358 -7.672864 60.403263 0.941962 -10.009296 5.587239 4.404928 -5.102013 0.000000 0.000000 0.000000 4.755377 -0.327330 1.446153 8.673938 17.112875 -3.827980 -6.894541 -2.565186 1.772769 -2.029804 -1.291032 0.583717 0.000000 0.000000 0.000000 -3.242689 -1.513893 -1.537169 -0.988204 0.242738 0.269703 0.000000 0.000000 0.000000 3.457648 0.420080 3.017400 2.978572 -3.847989 29.823580 -79.594230 -21.512369 -0.888111 -20.168195 -33.523904 3.262286 0.000000 0.000000 0.000000 -2.247893 -5.346195 -3.082712 1.209087 -6.437831 -27.666202 -68.885395 31.275262 -14.965967 -39.735742 64.341338 12.390802 0.000000 0.000000 0.000000 
